<svg version="1.1" xmlns="http://www.w3.org/2000/svg" viewBox="-281.2 -989.2 5886.4 1678.4"><desc>Created with Snap</desc><defs></defs><g><rect x="-281.2" y="-989.2" width="5886.4" height="1678.4" fill="#000000" style=""></rect><g><g transform="matrix(1,0,0,-1,0,0)"><path d="M105 565L105 16Q105 -1 81 -1Q63 -1 38 16Q26 43 26 145Q26 247 28 313Q30 380 32 436Q38 558 38 565Q67 582 86 582Q105 582 105 565ZM571 158L572 219Q572 338 559 394Q567 409 535 409Q501 409 447 392Q393 375 359 358Q278 319 269 282L269 10L202 10Q189 44 189 201Q189 341 194 407Q200 473 203 482Q229 499 245 499Q270 499 270 440Q270 417 267 395Q265 374 265 366Q427 485 516 485Q617 485 631 322Q637 265 637 164L636 85Q636 41 638 0Q628 -6 622 -6Q619 -5 609 -3Q599 -1 583 0Q573 40 572 81Q571 123 571 158ZM1036 258Q1146 258 1146 202Q1146 160 1085 104Q994 21 840 -29Q833 -29 824 -15Q816 -1 811 6Q807 14 805 16Q920 54 994 108Q1044 144 1044 167Q1044 190 985 190Q926 190 812 162Q760 164 722 199Q689 230 689 261Q689 293 707 319Q725 346 755 369Q785 392 825 411Q923 458 1028 458Q1059 458 1088 452Q1112 452 1116 431Q1120 410 1120 362Q1061 389 987 389Q895 389 835 352Q773 316 771 258Q771 230 812 230L885 238Q979 258 1036 258ZM1304 401Q1440 448 1539 448Q1665 448 1707 382Q1726 351 1726 315Q1726 265 1694 212Q1663 159 1611 116Q1490 17 1317 -7Q1317 -18 1317 -43Q1318 -67 1318 -97Q1319 -127 1319 -161Q1320 -195 1321 -226Q1324 -303 1325 -314Q1327 -325 1327 -332Q1327 -357 1311 -370Q1295 -382 1269 -382Q1264 -382 1259 -382L1243 422Q1252 435 1267 434Q1282 433 1291 426Q1300 419 1304 401ZM1596 366Q1563 383 1525 383Q1488 383 1451 376Q1367 360 1327 305Q1309 279 1309 241Q1309 237 1309 233L1309 60Q1515 106 1601 188Q1651 235 1651 285Q1651 338 1596 366ZM1805 470L1868 470Q1881 283 1890 37Q1884 6 1842 6Q1831 6 1819 10Q1808 15 1805 23L1805 470ZM1775 606Q1775 641 1816 641Q1843 641 1860 629Q1863 618 1863 607Q1863 597 1855 587Q1847 577 1831 577Q1815 577 1799 584Q1783 592 1775 606ZM2424 365Q2382 395 2316 395Q2254 395 2201 372Q2101 330 2064 264Q2048 234 2048 200Q2048 194 2048 166Q2048 139 2058 92Q2068 46 2068 -2Q2047 -3 2034 -7Q2021 -11 2012 -11Q2003 -11 1996 -3Q1990 5 1982 28Q1981 34 1978 62Q1975 90 1970 130Q1966 170 1960 217Q1955 265 1950 311Q1939 411 1933 458Q1933 482 1968 482Q1989 482 2001 464Q2013 447 2020 424Q2027 402 2029 380Q2032 358 2034 349Q2166 467 2362 467Q2384 467 2408 466Q2414 467 2423 467Q2432 467 2441 455Q2452 441 2452 421Q2452 371 2424 365ZM2891 166Q2816 48 2691 20Q2662 14 2638 14Q2615 14 2599 14Q2584 15 2565 19Q2546 23 2530 32Q2493 53 2493 91Q2489 109 2489 131Q2489 154 2499 191Q2509 228 2535 271Q2562 314 2600 350Q2679 426 2771 448Q2798 454 2820 454Q2843 454 2861 451Q2919 451 2939 372Q2952 322 2954 232Q2957 143 2959 94Q2962 46 2972 6L2913 6Q2909 33 2907 54Q2905 75 2903 93Q2898 135 2891 166ZM2887 321Q2887 379 2830 379Q2823 380 2816 380Q2743 380 2662 310Q2624 278 2597 238Q2557 181 2557 136Q2557 77 2625 66Q2715 68 2797 148Q2832 183 2855 224Q2887 279 2887 321ZM3170 96L3172 256Q3172 294 3165 321L3010 321L3008 390L3158 390L3158 648Q3161 657 3170 666Q3184 680 3193 680Q3203 680 3210 678Q3217 676 3225 664Q3241 598 3241 465Q3241 432 3244 400Q3276 404 3308 404Q3308 404 3360 404Q3379 404 3395 406L3392 334L3246 338L3251 -7Q3233 -15 3220 -15Q3170 -15 3170 96ZM3460 470L3523 470Q3536 283 3545 37Q3539 6 3497 6Q3486 6 3474 10Q3463 15 3460 23L3460 470ZM3430 606Q3430 641 3471 641Q3498 641 3515 629Q3518 618 3518 607Q3518 597 3510 587Q3502 577 3486 577Q3470 577 3454 584Q3438 592 3430 606ZM3613 190Q3613 308 3715 380Q3796 437 3910 449Q3916 449 3938 449Q3960 449 3997 436Q4079 408 4109 337Q4121 309 4121 289Q4121 270 4120 262Q4120 137 4025 65Q3937 -1 3805 -1Q3710 -1 3661 43Q3613 87 3613 190ZM3682 166Q3682 104 3715 82Q3740 66 3799 66Q3858 66 3903 75Q3948 84 3983 106Q4058 154 4058 255Q4058 315 4026 353Q3991 394 3934 394Q3895 387 3855 379Q3816 371 3781 348Q3705 299 3682 166ZM4553 158L4554 219Q4554 338 4541 394Q4549 409 4517 409Q4483 409 4429 392Q4375 375 4341 358Q4260 319 4251 282L4251 10L4184 10Q4171 44 4171 201Q4171 341 4176 407Q4182 473 4185 482Q4211 499 4227 499Q4252 499 4252 440Q4252 417 4249 395Q4247 374 4247 366Q4409 485 4498 485Q4599 485 4613 322Q4619 265 4619 164L4618 85Q4618 41 4620 0Q4610 -6 4604 -6Q4601 -5 4591 -3Q4581 -1 4565 0Q4555 40 4554 81Q4553 123 4553 158ZM5069 166Q4994 48 4869 20Q4840 14 4816 14Q4793 14 4777 14Q4762 15 4743 19Q4724 23 4708 32Q4671 53 4671 91Q4667 109 4667 131Q4667 154 4677 191Q4687 228 4713 271Q4740 314 4778 350Q4857 426 4949 448Q4976 454 4998 454Q5021 454 5039 451Q5097 451 5117 372Q5130 322 5132 232Q5135 143 5137 94Q5140 46 5150 6L5091 6Q5087 33 5085 54Q5083 75 5081 93Q5076 135 5069 166ZM5065 321Q5065 379 5008 379Q5001 380 4994 380Q4921 380 4840 310Q4802 278 4775 238Q4735 181 4735 136Q4735 77 4803 66Q4893 68 4975 148Q5010 183 5033 224Q5065 279 5065 321ZM5215 388Q5213 442 5211 484Q5209 527 5208 547Q5208 568 5192 648Q5201 660 5209 671Q5218 682 5234 682Q5269 682 5288 387Q5298 216 5298 45Q5298 -1 5234 -1L5226 0Q5226 52 5223 133Q5220 214 5218 274Q5217 334 5215 388Z" fill="#ffffff" style=""></path></g></g></g></svg>